HIERARCHY
ROOT Hips
{
	OFFSET 0.000000 0.000000 0.000000
	CHANNELS 6 Xposition Yposition Zposition Zrotation Yrotation Xrotation 
	JOINT LHipJoint
	{
		OFFSET 0.000000 0.000000 0.000000
		CHANNELS 3 Zrotation Yrotation Xrotation
		JOINT LeftUpLeg
		{
			OFFSET 1.363060 -1.794630 0.839290
			CHANNELS 3 Zrotation Yrotation Xrotation
			JOINT LeftLeg
			{
				OFFSET 2.448110 -6.726130 0.000000
				CHANNELS 3 Zrotation Yrotation Xrotation
				JOINT LeftFoot
				{
					OFFSET 2.562200 -7.039590 0.000000
					CHANNELS 3 Zrotation Yrotation Xrotation
					JOINT LeftToeBase
					{
						OFFSET 0.157640 -0.433110 2.322550
						CHANNELS 3 Zrotation Yrotation Xrotation
						End Site
						{
							OFFSET 0.000000 0.000000 0.000000
						}
					}
				}
			}
		}
	}
	JOINT RHipJoint
	{
		OFFSET 0.000000 0.000000 0.000000
		CHANNELS 3 Zrotation Yrotation Xrotation
		JOINT RightUpLeg
		{
			OFFSET -1.305520 -1.794630 0.839290
			CHANNELS 3 Zrotation Yrotation Xrotation
			JOINT RightLeg
			{
				OFFSET -2.542530 -6.985550 0.000000
				CHANNELS 3 Zrotation Yrotation Xrotation
				JOINT RightFoot
				{
					OFFSET -2.568260 -7.056230 0.000000
					CHANNELS 3 Zrotation Yrotation Xrotation
					JOINT RightToeBase
					{
						OFFSET -0.164730 -0.452590 2.363150
						CHANNELS 3 Zrotation Yrotation Xrotation
						End Site
						{
							OFFSET 0.000000 0.000000 0.000000
						}
					}
				}
			}
		}
	}
	JOINT LowerBack
	{
		OFFSET 0.000000 0.000000 0.000000
		CHANNELS 3 Zrotation Yrotation Xrotation
		JOINT Spine
		{
			OFFSET 0.028270 2.035590 -0.193380
			CHANNELS 3 Zrotation Yrotation Xrotation
			JOINT Spine1
			{
				OFFSET 0.056720 2.048850 -0.042750
				CHANNELS 3 Zrotation Yrotation Xrotation
				JOINT Neck
				{
					OFFSET 0.000000 0.000000 0.000000
					CHANNELS 3 Zrotation Yrotation Xrotation
					JOINT Neck1
					{
						OFFSET -0.054170 1.746240 0.172020
						CHANNELS 3 Zrotation Yrotation Xrotation
						JOINT Head
						{
							OFFSET 0.104070 1.761360 -0.123970
							CHANNELS 3 Zrotation Yrotation Xrotation
							End Site
							{
								OFFSET 0.000000 0.000000 0.000000
							}
						}
					}
				}
				JOINT LeftShoulder
				{
					OFFSET 0.000000 0.000000 0.000000
					CHANNELS 3 Zrotation Yrotation Xrotation
					JOINT LeftArm
					{
						OFFSET 3.362410 1.200890 -0.311210
						CHANNELS 3 Zrotation Yrotation Xrotation
						JOINT LeftForeArm
						{
							OFFSET 4.983000 -0.000000 -0.000000
							CHANNELS 3 Zrotation Yrotation Xrotation
							JOINT LeftHand
							{
								OFFSET 3.483560 -0.000000 -0.000000
								CHANNELS 3 Zrotation Yrotation Xrotation
								JOINT LeftFingerBase
								{
									OFFSET 0.000000 0.000000 0.000000
									CHANNELS 3 Zrotation Yrotation Xrotation
									JOINT LeftHandIndex1
									{
										OFFSET 0.715260 -0.000000 -0.000000
										CHANNELS 3 Zrotation Yrotation Xrotation
										End Site
										{
											OFFSET 0.000000 0.000000 0.000000
										}
									}
								}
								JOINT LThumb
								{
									OFFSET 0.000000 0.000000 0.000000
									CHANNELS 3 Zrotation Yrotation Xrotation
									End Site
									{
										OFFSET 0.000000 0.000000 0.000000
									}
								}
							}
						}
					}
				}
				JOINT RightShoulder
				{
					OFFSET 0.000000 0.000000 0.000000
					CHANNELS 3 Zrotation Yrotation Xrotation
					JOINT RightArm
					{
						OFFSET -3.136600 1.374050 -0.404650
						CHANNELS 3 Zrotation Yrotation Xrotation
						JOINT RightForeArm
						{
							OFFSET -5.241900 -0.000000 -0.000000
							CHANNELS 3 Zrotation Yrotation Xrotation
							JOINT RightHand
							{
								OFFSET -3.444170 -0.000000 -0.000000
								CHANNELS 3 Zrotation Yrotation Xrotation
								JOINT RightFingerBase
								{
									OFFSET 0.000000 0.000000 0.000000
									CHANNELS 3 Zrotation Yrotation Xrotation
									JOINT RightHandIndex1
									{
										OFFSET -0.622530 -0.000000 -0.000000
										CHANNELS 3 Zrotation Yrotation Xrotation
										End Site
										{
											OFFSET 0.000000 0.000000 0.000000
										}
									}
								}
								JOINT RThumb
								{
									OFFSET 0.000000 0.000000 0.000000
									CHANNELS 3 Zrotation Yrotation Xrotation
									End Site
									{
										OFFSET 0.000000 0.000000 0.000000
									}
								}
							}
						}
					}
				}
			}
		}
	}
}
MOTION
Frames: 4
Frame Time: 0.008333
-3.955932 15.783922 0.621965 115.738622 -81.845821 -58.163951 -8.498365 -0.091413 2.919933 -16.086070 -18.784129 -86.891111 -2.840873 3.584078 50.179103 0.935306 -1.265115 -17.188812 -0.264800 -0.000000 -37.686100 8.045643 0.724829 4.607055 2.151948 7.531677 -90.085971 2.872755 -3.908204 44.369569 -0.033992 4.965200 -15.814552 -0.011200 -0.000000 -56.110200 2.563717 -1.143568 -3.028295 -0.178890 -1.405095 -3.945679 -4.657191 -1.595409 -0.278822 14.058674 0.112080 -6.411770 -2.808571 -0.193129 -0.314145 0.000000 0.000000 0.000000 -7.746235 -2.778869 5.132480 -62.973348 -2.559963 29.019163 -3.204142 -25.168297 0.002000 -8.258738 9.577599 -0.688007 -0.023659 0.039286 0.000000 0.000000 0.000000 0.000000 0.000000 0.000000 0.000000 19.374181 2.851057 3.474344 58.136875 22.889506 10.902166 1.944402 47.339009 0.011952 0.639480 8.039757 0.043780 0.050680 -0.318106 0.000000 0.000000 0.000000 0.000000 0.000000 0.000000 0.000000 
-4.064077 15.664047 0.592309 119.417298 -81.763917 -61.554895 -8.455765 -0.001490 3.004173 -15.998479 -18.978028 -88.326617 -2.806792 3.794684 51.387721 0.802131 -1.975751 -17.393380 -0.210200 0.000000 -37.681100 8.050682 0.924921 4.606040 1.764308 7.997637 -91.368161 2.575716 -4.177232 47.389284 -0.153424 4.914592 -17.256681 -0.019600 0.000000 -55.933000 2.191565 -1.101447 -3.091560 -0.268637 -1.346742 -3.963906 -4.641713 -1.539269 -0.285624 13.687507 0.553475 -6.348815 -2.827308 -0.195178 -0.297833 0.000000 0.000000 0.000000 -8.194819 -2.824682 5.225840 -62.018904 -2.506503 30.703960 -3.301556 -25.356781 0.001463 -8.926272 9.953726 -0.773921 -0.023733 0.034150 0.000000 0.000000 0.000000 0.000000 0.000000 0.000000 0.000000 19.161596 3.345028 3.506134 58.349015 23.795615 11.799138 1.930613 46.636367 0.010647 0.398734 7.944869 0.025768 0.051528 -0.319210 0.000000 0.000000 0.000000 0.000000 0.000000 0.000000 0.000000 
-4.171550 15.541405 0.563210 123.076426 -81.738758 -65.085128 -8.413596 0.046143 3.019805 -15.866970 -19.010606 -89.628960 -2.692291 4.031630 53.056486 0.715990 -2.467395 -17.707730 -0.172000 0.000000 -37.322400 8.054488 1.129459 4.591965 1.459716 8.518357 -92.411153 2.272182 -4.412232 50.362101 -0.292363 4.785737 -18.723377 -0.021400 0.000000 -55.578800 1.872287 -1.056319 -3.090963 -0.346855 -1.286766 -3.964518 -4.637092 -1.481717 -0.288430 13.296610 1.000085 -6.290599 -2.854914 -0.197836 -0.282222 0.000000 0.000000 0.000000 -8.657363 -2.856094 5.317492 -61.017918 -2.516219 32.495216 -3.398707 -25.520168 0.000563 -9.534019 10.325479 -0.858534 -0.024958 0.028956 0.000000 0.000000 0.000000 0.000000 0.000000 0.000000 0.000000 18.963779 3.840789 3.547187 58.558267 24.808910 12.807905 1.926236 45.679719 0.009270 0.136019 7.848833 0.006654 0.052904 -0.319062 0.000000 0.000000 0.000000 0.000000 0.000000 0.000000 0.000000 
-4.279053 15.416811 0.535097 126.711040 -81.766231 -68.738951 -8.370579 0.044142 2.979249 -15.664594 -18.903907 -90.791687 -2.500638 4.280364 55.131165 0.682347 -2.726686 -18.163178 -0.152600 -0.000000 -36.636900 8.057078 1.330890 4.565702 1.247250 9.088694 -93.218057 1.970318 -4.614727 53.275493 -0.450675 4.584485 -20.236974 -0.011400 0.000000 -55.000799 1.608953 -1.012367 -3.040560 -0.411802 -1.229888 -3.950460 -4.640965 -1.427525 -0.284880 12.884264 1.445313 -6.243218 -2.889458 -0.200895 -0.268958 0.000000 0.000000 0.000000 -9.113007 -2.879347 5.414482 -60.018673 -2.613643 34.278619 -3.501493 -25.667569 -0.000772 -10.231432 10.880973 -0.972352 -0.026397 0.022525 0.000000 0.000000 0.000000 0.000000 0.000000 0.000000 0.000000 18.767863 4.336512 3.598737 58.779715 25.927744 13.938504 1.933319 44.460603 0.008030 -0.103593 7.750053 -0.010464 0.054395 -0.317559 0.000000 0.000000 0.000000 0.000000 0.000000 0.000000 0.000000 
